<svg xmlns="http://www.w3.org/2000/svg" xmlns:xlink="http://www.w3.org/1999/xlink" width="500" zoomAndPan="magnify" viewBox="0 0 375 374.999991" height="500" preserveAspectRatio="xMidYMid meet" version="1.0"><defs><g/><clipPath id="23673ad41b"><path d="M 112.785156 128 L 262.035156 128 L 262.035156 145 L 112.785156 145 Z M 112.785156 128 " clip-rule="nonzero"/></clipPath><clipPath id="880094e52d"><path d="M 112.785156 148 L 262.035156 148 L 262.035156 162 L 112.785156 162 Z M 112.785156 148 " clip-rule="nonzero"/></clipPath><clipPath id="ff6af879ae"><path d="M 145 71.921875 L 229 71.921875 L 229 85 L 145 85 Z M 145 71.921875 " clip-rule="nonzero"/></clipPath><clipPath id="c3d988345f"><path d="M 145 208 L 229 208 L 229 221.894531 L 145 221.894531 Z M 145 208 " clip-rule="nonzero"/></clipPath><clipPath id="a5d2220362"><path d="M 114 164 L 261 164 L 261 221.894531 L 114 221.894531 Z M 114 164 " clip-rule="nonzero"/></clipPath><clipPath id="a37751d677"><path d="M 154 214 L 217 214 L 217 221.894531 L 154 221.894531 Z M 154 214 " clip-rule="nonzero"/></clipPath><clipPath id="b2c8ed7cdc"><path d="M 141.335938 102.488281 L 176.09375 102.488281 L 176.09375 137.25 L 141.335938 137.25 Z M 141.335938 102.488281 " clip-rule="nonzero"/></clipPath><clipPath id="5253e11007"><path d="M 158.714844 102.488281 C 149.117188 102.488281 141.335938 110.269531 141.335938 119.871094 C 141.335938 129.46875 149.117188 137.25 158.714844 137.25 C 168.3125 137.25 176.09375 129.46875 176.09375 119.871094 C 176.09375 110.269531 168.3125 102.488281 158.714844 102.488281 Z M 158.714844 102.488281 " clip-rule="nonzero"/></clipPath></defs><path fill="#4a8aaf" d="M 140.867188 88.246094 C 135.019531 92.910156 129.90625 98.429688 125.703125 104.621094 L 249.128906 104.621094 C 244.921875 98.429688 239.8125 92.910156 233.964844 88.246094 Z M 140.867188 88.246094 " fill-opacity="1" fill-rule="nonzero"/><path fill="#faba8a" d="M 123.328125 108.339844 C 120.253906 113.484375 117.8125 118.984375 116.054688 124.714844 L 258.773438 124.714844 C 257.015625 118.984375 254.574219 113.484375 251.503906 108.339844 Z M 123.328125 108.339844 " fill-opacity="1" fill-rule="nonzero"/><g clip-path="url(#23673ad41b)"><path fill="#fc9248" d="M 115.019531 128.433594 C 113.671875 133.792969 112.921875 139.285156 112.785156 144.808594 L 262.046875 144.808594 C 261.90625 139.285156 261.160156 133.792969 259.8125 128.433594 Z M 115.019531 128.433594 " fill-opacity="1" fill-rule="nonzero"/></g><g clip-path="url(#880094e52d)"><path fill="#c32929" d="M 112.785156 148.527344 C 112.890625 152.726562 113.347656 156.910156 114.152344 161.03125 L 260.675781 161.03125 C 261.484375 156.910156 261.941406 152.726562 262.046875 148.527344 Z M 112.785156 148.527344 " fill-opacity="1" fill-rule="nonzero"/></g><path fill="#6bb8a6" d="M 116.054688 168.625 C 117.8125 174.355469 120.257812 179.855469 123.328125 185 L 251.5 185 C 254.570312 179.855469 257.015625 174.355469 258.773438 168.625 Z M 116.054688 168.625 " fill-opacity="1" fill-rule="nonzero"/><g clip-path="url(#ff6af879ae)"><path fill="#34658e" d="M 187.351562 71.9375 C 172.613281 71.949219 158.207031 76.332031 145.953125 84.523438 L 228.878906 84.523438 C 216.601562 76.320312 202.175781 71.9375 187.414062 71.9375 Z M 187.351562 71.9375 " fill-opacity="1" fill-rule="nonzero"/></g><path fill="#4d8079" d="M 125.703125 188.71875 C 129.910156 194.910156 135.019531 200.429688 140.867188 205.09375 L 233.964844 205.09375 C 239.808594 200.425781 244.917969 194.910156 249.128906 188.71875 Z M 125.703125 188.71875 " fill-opacity="1" fill-rule="nonzero"/><g clip-path="url(#c3d988345f)"><path fill="#254e48" d="M 145.953125 208.816406 C 158.226562 217.019531 172.65625 221.398438 187.414062 221.398438 C 202.175781 221.398438 216.601562 217.019531 228.878906 208.816406 Z M 145.953125 208.816406 " fill-opacity="1" fill-rule="nonzero"/></g><path fill="#ffffff" d="M 182.949219 119.210938 C 182.949219 132.699219 172.027344 143.636719 158.546875 143.636719 C 145.070312 143.636719 134.144531 132.699219 134.144531 119.210938 C 134.144531 105.71875 145.070312 94.78125 158.546875 94.78125 C 172.027344 94.78125 182.949219 105.71875 182.949219 119.210938 Z M 182.949219 119.210938 " fill-opacity="1" fill-rule="nonzero"/><g clip-path="url(#a5d2220362)"><path fill="#4a8aaf" d="M 114.382812 164.214844 C 122.488281 198.019531 152.6875 221.851562 187.414062 221.851562 C 222.140625 221.851562 252.339844 198.019531 260.445312 164.214844 Z M 114.382812 164.214844 " fill-opacity="1" fill-rule="nonzero"/></g><path fill="#34658e" d="M 258.957031 169.550781 L 171.898438 180.15625 L 253.125 183.074219 C 255.507812 178.769531 257.460938 174.238281 258.957031 169.550781 Z M 258.957031 169.550781 " fill-opacity="1" fill-rule="nonzero"/><path fill="#34658e" d="M 120.714844 181.226562 C 122.804688 185.265625 125.253906 189.105469 128.03125 192.703125 L 219.347656 193.113281 Z M 120.714844 181.226562 " fill-opacity="1" fill-rule="nonzero"/><g clip-path="url(#a37751d677)"><path fill="#34658e" d="M 154.597656 214.292969 C 164.824219 219.265625 176.046875 221.851562 187.414062 221.851562 C 197.25 221.851562 206.984375 219.917969 216.074219 216.160156 Z M 154.597656 214.292969 " fill-opacity="1" fill-rule="nonzero"/></g><path fill="#051d3b" d="M 218.515625 80.332031 C 213.582031 84.507812 212.796875 94.714844 212.796875 94.714844 C 214.675781 92.414062 217.011719 91.894531 217.011719 91.894531 C 213.425781 97.734375 213.804688 103.742188 213.804688 103.742188 C 213.804688 103.742188 219.734375 91.449219 229.78125 87.800781 C 239.832031 84.15625 247.832031 88.519531 247.832031 88.519531 C 241.464844 86.578125 231.75 91.113281 231.75 91.113281 C 236.390625 91.53125 240.257812 94.125 240.257812 94.125 C 230.46875 92.316406 220.046875 100.734375 220.046875 100.734375 C 224.859375 98.917969 230.132812 99.101562 230.132812 99.101562 C 220.445312 102.171875 216.574219 108.410156 216.574219 108.410156 C 216.574219 108.410156 233.820312 99.300781 248.496094 106.789062 C 248.496094 106.789062 242.699219 106.371094 236.8125 108.011719 L 241.109375 112.902344 C 241.109375 112.902344 235.929688 109.503906 228.722656 110.339844 L 232.023438 114.882812 C 232.023438 114.882812 227.222656 110.207031 217.050781 112.464844 C 222.117188 117.222656 230.417969 128.328125 230.175781 149.878906 L 223.972656 152.214844 C 225.347656 133.359375 218.953125 119.21875 215.433594 113.003906 C 214.597656 113.832031 211.449219 117.453125 212.851562 123.851562 C 212.851562 123.851562 211.296875 121.257812 210.640625 118.753906 C 210.640625 118.753906 204.074219 122.820312 205.070312 130.839844 C 205.070312 130.839844 203.5625 128.367188 203.175781 125.039062 C 198.710938 127.011719 197.960938 131.925781 197.960938 131.925781 C 193.933594 119.699219 212.257812 110.761719 212.257812 110.761719 C 204.023438 110.390625 193.523438 118.984375 193.523438 118.984375 L 194.578125 114.101562 C 191.1875 115.089844 184.894531 119.488281 184.894531 119.488281 C 190.636719 106.324219 209.371094 105.769531 209.371094 105.769531 C 206.109375 96.773438 208.066406 84.234375 218.515625 80.332031 Z M 218.515625 80.332031 " fill-opacity="1" fill-rule="nonzero"/><path fill="#051d3b" d="M 233.058594 146.835938 C 220.03125 146.835938 207.84375 152.152344 200.507812 161.035156 L 261.136719 161.035156 C 261.390625 159.726562 261.609375 158.417969 261.792969 157.101562 C 254.34375 150.550781 243.945312 146.835938 233.058594 146.835938 C 233.0625 146.835938 233.058594 146.835938 233.058594 146.835938 Z M 233.058594 146.835938 " fill-opacity="1" fill-rule="nonzero"/><path fill="#051d3b" d="M 235.402344 110.117188 C 238.183594 112.023438 239.136719 117.277344 239.136719 117.277344 C 238.035156 116.183594 236.796875 116.039062 236.796875 116.039062 C 238.96875 118.878906 239.089844 122.015625 239.089844 122.015625 C 239.089844 122.015625 235.359375 115.953125 229.949219 114.597656 C 224.539062 113.242188 220.621094 115.933594 220.621094 115.933594 C 223.820312 114.589844 229.105469 116.421875 229.105469 116.421875 C 226.722656 116.886719 224.851562 118.4375 224.851562 118.4375 C 229.835938 116.976562 235.691406 120.789062 235.691406 120.789062 C 233.097656 120.105469 230.371094 120.480469 230.371094 120.480469 C 235.5625 121.558594 237.902344 124.585938 237.902344 124.585938 C 237.902344 124.585938 228.46875 120.78125 221.25 125.453125 C 221.25 125.453125 224.238281 124.925781 227.378906 125.464844 L 225.410156 128.230469 C 225.410156 128.230469 227.914062 126.1875 231.699219 126.238281 L 230.226562 128.769531 C 230.226562 128.769531 232.472656 126.085938 237.867188 126.714844 C 235.492188 129.457031 231.78125 135.660156 233.054688 146.832031 L 236.398438 147.714844 C 234.679688 138.003906 237.242188 130.320312 238.738281 126.910156 C 239.214844 127.296875 241.042969 129.003906 240.65625 132.402344 C 240.65625 132.402344 241.324219 130.972656 241.53125 129.636719 C 241.53125 129.636719 245.15625 131.398438 245.066406 135.613281 C 245.066406 135.613281 245.714844 134.25 245.738281 132.503906 C 248.160156 133.289062 248.8125 135.796875 248.8125 135.796875 C 250.25 129.238281 240.265625 125.578125 240.265625 125.578125 C 244.519531 124.949219 250.425781 128.84375 250.425781 128.84375 L 249.617188 126.367188 C 251.429688 126.699219 254.929688 128.644531 254.929688 128.644531 C 251.25 122.121094 241.5 122.832031 241.5 122.832031 C 242.710938 117.988281 241.027344 111.585938 235.402344 110.117188 Z M 235.402344 110.117188 " fill-opacity="1" fill-rule="nonzero"/><g clip-path="url(#b2c8ed7cdc)"><g clip-path="url(#5253e11007)"><path fill="#faba8a" d="M 141.335938 102.488281 L 176.09375 102.488281 L 176.09375 137.25 L 141.335938 137.25 Z M 141.335938 102.488281 " fill-opacity="1" fill-rule="nonzero"/></g></g><g fill="#051d3b" fill-opacity="1"><g transform="translate(99.551695, 273.316506)"><g><path d="M 25.1875 -27.734375 L 25.59375 -17.78125 L 24.828125 -17.78125 C 23.671875 -21.289062 22.644531 -23.6875 21.75 -24.96875 C 20.851562 -26.25 19.554688 -26.890625 17.859375 -26.890625 L 17.390625 -26.890625 L 17.390625 -0.828125 L 20.75 -0.828125 L 20.75 0 L 6.296875 0 L 6.296875 -0.828125 L 9.671875 -0.828125 L 9.671875 -26.890625 L 9.15625 -26.890625 C 7.457031 -26.890625 6.144531 -26.222656 5.21875 -24.890625 C 4.300781 -23.554688 3.285156 -21.1875 2.171875 -17.78125 L 1.421875 -17.78125 L 1.828125 -27.734375 Z M 25.1875 -27.734375 "/></g></g></g><g fill="#051d3b" fill-opacity="1"><g transform="translate(134.528636, 273.316506)"><g><path d="M 17.109375 -0.75 L 14.21875 -9.3125 L 6.375 -9.3125 L 3.328125 -0.75 L 6.296875 -0.75 L 6.296875 0 L 0.234375 0 L 0.234375 -0.75 L 2.09375 -0.75 L 12.203125 -27.96875 L 15.453125 -27.96875 L 25.421875 -0.75 L 27.25 -0.75 L 27.25 0 L 14.296875 0 L 14.296875 -0.75 Z M 10.453125 -20.5625 L 6.734375 -10.171875 L 13.90625 -10.171875 Z M 10.453125 -20.5625 "/></g></g></g><g fill="#051d3b" fill-opacity="1"><g transform="translate(169.941288, 273.316506)"><g><path d="M 23.375 -26.96875 L 23.375 0 L 17.828125 0 L 4.234375 -25.625 L 4.234375 -0.75 L 6.421875 -0.75 L 6.421875 0 L 0.984375 0 L 0.984375 -0.75 L 3.171875 -0.75 L 3.171875 -26.96875 L 0.984375 -26.96875 L 0.984375 -27.734375 L 11.921875 -27.734375 L 22.296875 -7.84375 L 22.296875 -26.96875 L 20.125 -26.96875 L 20.125 -27.734375 L 25.546875 -27.734375 L 25.546875 -26.96875 Z M 23.375 -26.96875 "/></g></g></g><g fill="#051d3b" fill-opacity="1"><g transform="translate(204.403314, 273.316506)"><g><path d="M 0.984375 -27.734375 L 13.078125 -27.734375 L 13.078125 -26.96875 L 10.890625 -26.96875 L 10.890625 -0.75 L 13.078125 -0.75 L 13.078125 0 L 0.984375 0 L 0.984375 -0.75 L 3.171875 -0.75 L 3.171875 -26.96875 L 0.984375 -26.96875 Z M 0.984375 -27.734375 "/></g></g></g><g fill="#051d3b" fill-opacity="1"><g transform="translate(226.388363, 273.316506)"><g><path d="M 25.1875 -27.734375 L 25.59375 -17.78125 L 24.828125 -17.78125 C 23.671875 -21.289062 22.644531 -23.6875 21.75 -24.96875 C 20.851562 -26.25 19.554688 -26.890625 17.859375 -26.890625 L 17.390625 -26.890625 L 17.390625 -0.828125 L 20.75 -0.828125 L 20.75 0 L 6.296875 0 L 6.296875 -0.828125 L 9.671875 -0.828125 L 9.671875 -26.890625 L 9.15625 -26.890625 C 7.457031 -26.890625 6.144531 -26.222656 5.21875 -24.890625 C 4.300781 -23.554688 3.285156 -21.1875 2.171875 -17.78125 L 1.421875 -17.78125 L 1.828125 -27.734375 Z M 25.1875 -27.734375 "/></g></g></g><g fill="#051d3b" fill-opacity="1"><g transform="translate(261.365304, 273.316506)"><g><path d="M 0.984375 -27.734375 L 13.078125 -27.734375 L 13.078125 -26.96875 L 10.890625 -26.96875 L 10.890625 -0.75 L 13.078125 -0.75 L 13.078125 0 L 0.984375 0 L 0.984375 -0.75 L 3.171875 -0.75 L 3.171875 -26.96875 L 0.984375 -26.96875 Z M 0.984375 -27.734375 "/></g></g></g><g fill="#051d3b" fill-opacity="1"><g transform="translate(147.74182, 299.767684)"><g><path d="M 7.28125 -1.03125 L 7.28125 0 L 1.25 0 L 1.25 -8.328125 L 7.125 -8.328125 L 7.125 -7.28125 L 2.4375 -7.28125 L 2.4375 -4.734375 L 6.609375 -4.734375 L 6.609375 -3.71875 L 2.4375 -3.71875 L 2.4375 -1.03125 Z M 7.28125 -1.03125 "/></g></g></g><g fill="#051d3b" fill-opacity="1"><g transform="translate(165.230153, 299.767684)"><g><path d="M 8.40625 -8.328125 L 8.40625 0 L 7.4375 0 L 2.4375 -6.203125 L 2.4375 0 L 1.25 0 L 1.25 -8.328125 L 2.21875 -8.328125 L 7.21875 -2.109375 L 7.21875 -8.328125 Z M 8.40625 -8.328125 "/></g></g></g><g fill="#051d3b" fill-opacity="1"><g transform="translate(184.407507, 299.767684)"><g><path d="M 2.3125 0.09375 C 1.8125 0.09375 1.347656 -0.0078125 0.921875 -0.21875 C 0.492188 -0.425781 0.148438 -0.722656 -0.109375 -1.109375 L 0.578125 -1.921875 C 1.035156 -1.253906 1.613281 -0.921875 2.3125 -0.921875 C 2.78125 -0.921875 3.132812 -1.0625 3.375 -1.34375 C 3.625 -1.632812 3.75 -2.054688 3.75 -2.609375 L 3.75 -7.28125 L 0.734375 -7.28125 L 0.734375 -8.328125 L 4.921875 -8.328125 L 4.921875 -2.671875 C 4.921875 -1.753906 4.703125 -1.0625 4.265625 -0.59375 C 3.828125 -0.132812 3.175781 0.09375 2.3125 0.09375 Z M 2.3125 0.09375 "/></g></g></g><g fill="#051d3b" fill-opacity="1"><g transform="translate(200.028391, 299.767684)"><g><path d="M 5 0.09375 C 4.164062 0.09375 3.410156 -0.0859375 2.734375 -0.453125 C 2.054688 -0.828125 1.523438 -1.335938 1.140625 -1.984375 C 0.765625 -2.628906 0.578125 -3.351562 0.578125 -4.15625 C 0.578125 -4.957031 0.765625 -5.679688 1.140625 -6.328125 C 1.523438 -6.984375 2.054688 -7.492188 2.734375 -7.859375 C 3.410156 -8.234375 4.164062 -8.421875 5 -8.421875 C 5.832031 -8.421875 6.585938 -8.234375 7.265625 -7.859375 C 7.941406 -7.492188 8.46875 -6.988281 8.84375 -6.34375 C 9.226562 -5.695312 9.421875 -4.96875 9.421875 -4.15625 C 9.421875 -3.351562 9.226562 -2.628906 8.84375 -1.984375 C 8.46875 -1.335938 7.941406 -0.828125 7.265625 -0.453125 C 6.585938 -0.0859375 5.832031 0.09375 5 0.09375 Z M 5 -0.96875 C 5.613281 -0.96875 6.164062 -1.101562 6.65625 -1.375 C 7.144531 -1.65625 7.53125 -2.039062 7.8125 -2.53125 C 8.09375 -3.019531 8.234375 -3.5625 8.234375 -4.15625 C 8.234375 -4.757812 8.09375 -5.304688 7.8125 -5.796875 C 7.53125 -6.285156 7.144531 -6.664062 6.65625 -6.9375 C 6.164062 -7.21875 5.613281 -7.359375 5 -7.359375 C 4.394531 -7.359375 3.84375 -7.21875 3.34375 -6.9375 C 2.851562 -6.664062 2.46875 -6.285156 2.1875 -5.796875 C 1.90625 -5.304688 1.765625 -4.757812 1.765625 -4.15625 C 1.765625 -3.5625 1.90625 -3.019531 2.1875 -2.53125 C 2.46875 -2.039062 2.851562 -1.65625 3.34375 -1.375 C 3.84375 -1.101562 4.394531 -0.96875 5 -0.96875 Z M 5 -0.96875 "/></g></g></g><g fill="#051d3b" fill-opacity="1"><g transform="translate(219.538792, 299.767684)"><g><path d="M 4.4375 -2.875 L 4.4375 0 L 3.265625 0 L 3.265625 -2.90625 L -0.046875 -8.328125 L 1.21875 -8.328125 L 3.890625 -3.9375 L 6.5625 -8.328125 L 7.734375 -8.328125 Z M 4.4375 -2.875 "/></g></g></g><g fill="#051d3b" fill-opacity="1"><g transform="translate(160.069944, 316.267683)"><g><path d="M 1.25 -8.328125 L 2.4375 -8.328125 L 2.4375 -1.03125 L 6.9375 -1.03125 L 6.9375 0 L 1.25 0 Z M 1.25 -8.328125 "/></g></g></g><g fill="#051d3b" fill-opacity="1"><g transform="translate(176.654285, 316.267683)"><g><path d="M 1.25 -8.328125 L 2.4375 -8.328125 L 2.4375 0 L 1.25 0 Z M 1.25 -8.328125 "/></g></g></g><g fill="#051d3b" fill-opacity="1"><g transform="translate(189.860581, 316.267683)"><g><path d="M 2.4375 -7.28125 L 2.4375 -4.390625 L 6.609375 -4.390625 L 6.609375 -3.359375 L 2.4375 -3.359375 L 2.4375 0 L 1.25 0 L 1.25 -8.328125 L 7.125 -8.328125 L 7.125 -7.28125 Z M 2.4375 -7.28125 "/></g></g></g><g fill="#051d3b" fill-opacity="1"><g transform="translate(206.932599, 316.267683)"><g><path d="M 7.28125 -1.03125 L 7.28125 0 L 1.25 0 L 1.25 -8.328125 L 7.125 -8.328125 L 7.125 -7.28125 L 2.4375 -7.28125 L 2.4375 -4.734375 L 6.609375 -4.734375 L 6.609375 -3.71875 L 2.4375 -3.71875 L 2.4375 -1.03125 Z M 7.28125 -1.03125 "/></g></g></g></svg>